<?xml version="1.0" encoding="UTF-8"?>
<!DOCTYPE svg PUBLIC "-//W3C//DTD SVG 1.1//EN" "http://www.w3.org/Graphics/SVG/1.1/DTD/svg11.dtd">
<svg version="1.1" id="ladezone-icon" role="img" aria-labelledby="title desc" xmlns="http://www.w3.org/2000/svg" xmlns:xlink="http://www.w3.org/1999/xlink" viewBox="0 0 19 19" preserveAspectRatio="xMidYMid meet" style="enable-background:new 0 0 19 19;" xml:space="preserve">
<title id="title">Ladezone</title>
<desc id="desc">An dieser Stelle befindet sich eine Wohnpartner Service-Einrichtung.</desc>
<style type="text/css">
<![CDATA[
	.background{fill:#149C0A;}
	.icon{fill:#FFFFFF;}
]]>
</style>
<rect role="presentation" id="background" class="background" x="0" y="0" rx="3" ry="3" width="19" height="19"/>
<path role="presentation" id="icon-ladezone" class="icon" d="M3.74,12.66c0-0.97,0.78-1.75,1.75-1.75c0.97,0,1.75,0.78,1.75,1.75c0,0.96-0.79,1.74-1.75,1.74  C4.52,14.4,3.74,13.62,3.74,12.66z M14.75,14.4c0.97,0,1.75-0.78,1.75-1.74c0-0.97-0.79-1.75-1.75-1.75c-0.96,0-1.75,0.78-1.75,1.75  C13,13.62,13.78,14.4,14.75,14.4z M10.91,12.34H8.22c0,0-0.16-2.82-2.8-2.82c-2.54,0-2.38,2.66-2.38,2.66H2.1V8.74  C2.1,8.74,1.97,4,8.27,4v5.16c0,0,0.67,0.71,1.05,1.39C9.69,11.21,10.91,12.34,10.91,12.34z M7.49,4.81c-4.11,0-4.41,3.59-4.41,3.59  h4.41V4.81z M16.25,7.82h-5.4v1.77h5.4V7.82z"/>
</svg>